# xmcd
#
# Track frame offsets:
#	209
#	10519
#	26841
#	40550
#	54938
#	69264
#	72712
#	84176
#	101255
#	115977
#	139017
#	152953
#	168191
#
# Disc length: 2450 seconds
#
# Revision: 1
# Processed by: cddbd v1.5.2PL0 Copyright (c) Steve Scherf et al.
# Submitted via: audiograbber 1.83.01
#
DISCID=9909900d
DTITLE=Väterchen Prost und seine Bluesbriederchen - You need SOUL!!!
DYEAR=2008
DGENRE=Soul
TTITLE0=Hard to Handle
TTITLE1=Hallelujah
TTITLE2=Think
TTITLE3=Flip, Flop and Fly
TTITLE4=Soul Man
TTITLE5=I Can't Turn You Loose
TTITLE6=Theme From Rawhide
TTITLE7=She Caught The Katy
TTITLE8=You need SOUL!!!
TTITLE9=Sweet Home Chicago
TTITLE10=Everybody Needs Somebody
TTITLE11=Jailhouse Rock
TTITLE12=National Anthem Of Lower Bavaria
EXTD=Erste CD der legendären Blues Brothers Tribute Band "Väterchen Prost und s
EXTD=eine Bluesbriederchen" (www.bluesbriederchen.de)
EXTT0=
EXTT1=
EXTT2=
EXTT3=
EXTT4=
EXTT5=
EXTT6=
EXTT7=
EXTT8=Erster eigener Song der legendären Blues Brothers Tribute Band "Väterchen
EXTT8=Prost und seine Bluesbriederchen" (www.bluesbriederchen.de)
EXTT9=
EXTT10=
EXTT11=
EXTT12=Bonustrack: Bluesfassung der Bayernhymne, eine Bearbeitung der legendäre
EXTT12=n Blues Brothers Tribute Band "Väterchen Prost und seine Bluesbriederche
EXTT12=n" (www.bluesbriederchen.de)
PLAYORDER=
